<svg version="1.1" id="Layer_1" xmlns="http://www.w3.org/2000/svg" xmlns:xlink="http://www.w3.org/1999/xlink" x="0px"
    y="0px" width="100%" viewBox="0 0 4346 5063" enable-background="new 0 0 4346 5063" xml:space="preserve">

    <path xmlns="http://www.w3.org/2000/svg" fill="#0A0A0A" opacity="1.000000" stroke="none"
        d=" M827.395264,1026.916260   C805.507874,1026.603027 785.864990,1023.739868 767.145569,1016.038574   C753.460876,1010.408630 741.035400,1002.817688 731.078674,991.688171   C710.606445,968.804260 710.702026,940.692383 731.275391,917.941467   C740.352905,907.903137 751.342468,900.494751 763.786804,895.355774   C803.878662,878.799622 844.016052,878.962158 884.015808,895.664124   C895.792603,900.581543 906.265198,907.616150 915.042664,916.972107   C937.359070,940.759094 937.283569,970.087830 914.531189,993.597229   C897.687622,1011.001221 876.234070,1019.561157 852.938110,1023.971863   C845.114319,1025.453125 837.103943,1025.948730 827.395264,1026.916260  M749.224304,939.113647   C748.864075,955.276733 757.558411,966.753845 769.213257,976.285339   C792.347961,995.205322 819.475769,1002.935852 848.903687,1002.265137   C860.789673,1001.994263 872.659241,999.619385 883.054932,992.759644   C897.568848,983.182556 902.193665,968.298889 894.111633,953.043823   C890.761902,946.721130 886.100647,940.578430 880.669922,935.960022   C853.314880,912.696533 821.300476,903.820923 786.016174,909.096375   C769.889526,911.507446 755.195618,918.180664 749.224304,939.113647  z" />

    <path xmlns="http://www.w3.org/2000/svg" fill="#F9FAFA" opacity="1.000000" stroke="none"
        d=" M749.561157,937.642944   C755.195618,918.180664 769.889526,911.507446 786.016174,909.096375   C821.300476,903.820923 853.314880,912.696533 880.669922,935.960022   C886.100647,940.578430 890.761902,946.721130 894.111633,953.043823   C902.193665,968.298889 897.568848,983.182556 883.054932,992.759644   C872.659241,999.619385 860.789673,1001.994263 848.903687,1002.265137   C819.475769,1002.935852 792.347961,995.205322 769.213257,976.285339   C757.558411,966.753845 748.864075,955.276733 749.561157,937.642944  z" />
</svg>